<svg xmlns="http://www.w3.org/2000/svg" xmlns:xlink="http://www.w3.org/1999/xlink" xmlns:lucid="lucid" width="1845.57" height="1002"><g transform="translate(-34.433070866141634 -29)" lucid:page-tab-id="0_0"><path d="M0 0h1870.87v1322.83H0z" fill="#fff"/><path d="M179.22 86c0-3.3 2.7-6 6-6h348c3.3 0 6 2.7 6 6v372c0 3.3-2.7 6-6 6h-348c-3.3 0-6-2.7-6-6z" stroke="#5e5e5e" stroke-width="3" fill="#fff"/><path d="M179.22 122.67h360m-360 277.5h360" stroke="#5e5e5e" stroke-width="3" fill="none"/><use xlink:href="#a" transform="matrix(1,0,0,1,187.21932306930626,88) translate(133.7283950617284 17.944444444444443)"/><use xlink:href="#b" transform="matrix(1,0,0,1,191.21932306930626,130.66666666666669) translate(0 28.777777777777793)"/><use xlink:href="#c" transform="matrix(1,0,0,1,191.21932306930626,130.66666666666669) translate(94.75308641975309 28.777777777777793)"/><use xlink:href="#d" transform="matrix(1,0,0,1,191.21932306930626,130.66666666666669) translate(0 55.444444444444464)"/><use xlink:href="#e" transform="matrix(1,0,0,1,191.21932306930626,130.66666666666669) translate(29.5679012345679 55.444444444444464)"/><use xlink:href="#f" transform="matrix(1,0,0,1,191.21932306930626,130.66666666666669) translate(0 82.11111111111111)"/><use xlink:href="#e" transform="matrix(1,0,0,1,191.21932306930626,130.66666666666669) translate(67.8395061728395 82.11111111111111)"/><use xlink:href="#g" transform="matrix(1,0,0,1,191.21932306930626,130.66666666666669) translate(0 108.7777777777778)"/><use xlink:href="#e" transform="matrix(1,0,0,1,191.21932306930626,130.66666666666669) translate(66.60493827160494 108.7777777777778)"/><use xlink:href="#h" transform="matrix(1,0,0,1,191.21932306930626,130.66666666666669) translate(0 135.44444444444446)"/><use xlink:href="#i" transform="matrix(1,0,0,1,191.21932306930626,130.66666666666669) translate(98.64197530864197 135.44444444444446)"/><use xlink:href="#j" transform="matrix(1,0,0,1,191.21932306930626,130.66666666666669) translate(0 162.11111111111114)"/><use xlink:href="#k" transform="matrix(1,0,0,1,191.21932306930626,130.66666666666669) translate(83.9506172839506 162.11111111111114)"/><use xlink:href="#l" transform="matrix(1,0,0,1,191.21932306930626,130.66666666666669) translate(0 188.77777777777777)"/><use xlink:href="#m" transform="matrix(1,0,0,1,191.21932306930626,130.66666666666669) translate(124.5679012345679 188.77777777777777)"/><use xlink:href="#n" transform="matrix(1,0,0,1,191.21932306930626,130.66666666666669) translate(0 215.44444444444446)"/><use xlink:href="#o" transform="matrix(1,0,0,1,191.21932306930626,130.66666666666669) translate(77.71604938271604 215.44444444444446)"/><use xlink:href="#p" transform="matrix(1,0,0,1,191.21932306930626,130.66666666666669) translate(0 242.1111111111111)"/><use xlink:href="#q" transform="matrix(1,0,0,1,191.21932306930626,130.66666666666669) translate(90.12345679012344 242.1111111111111)"/><path d="M605.43 95c0-3.3 2.7-6 6-6h348c3.32 0 6 2.7 6 6v292c0 3.3-2.68 6-6 6h-348c-3.3 0-6-2.7-6-6z" stroke="#5e5e5e" stroke-width="3" fill="#fff"/><path d="M605.43 131.67h360m-360 197.5h360" stroke="#5e5e5e" stroke-width="3" fill="none"/><use xlink:href="#r" transform="matrix(1,0,0,1,613.4330708661416,97) translate(126.38271604938271 17.944444444444443)"/><use xlink:href="#d" transform="matrix(1,0,0,1,617.4330708661416,139.66666666666669) translate(0 28.77777777777778)"/><use xlink:href="#e" transform="matrix(1,0,0,1,617.4330708661416,139.66666666666669) translate(29.5679012345679 28.77777777777778)"/><use xlink:href="#f" transform="matrix(1,0,0,1,617.4330708661416,139.66666666666669) translate(0 55.44444444444445)"/><use xlink:href="#e" transform="matrix(1,0,0,1,617.4330708661416,139.66666666666669) translate(67.8395061728395 55.44444444444445)"/><use xlink:href="#g" transform="matrix(1,0,0,1,617.4330708661416,139.66666666666669) translate(0 82.11111111111111)"/><use xlink:href="#e" transform="matrix(1,0,0,1,617.4330708661416,139.66666666666669) translate(66.60493827160494 82.11111111111111)"/><use xlink:href="#s" transform="matrix(1,0,0,1,617.4330708661416,139.66666666666669) translate(0 108.77777777777777)"/><use xlink:href="#e" transform="matrix(1,0,0,1,617.4330708661416,139.66666666666669) translate(114.69135802469137 108.77777777777777)"/><use xlink:href="#t" transform="matrix(1,0,0,1,617.4330708661416,139.66666666666669) translate(0 135.44444444444446)"/><use xlink:href="#u" transform="matrix(1,0,0,1,617.4330708661416,139.66666666666669) translate(83.82716049382715 135.44444444444446)"/><use xlink:href="#j" transform="matrix(1,0,0,1,617.4330708661416,139.66666666666669) translate(0 162.11111111111111)"/><use xlink:href="#v" transform="matrix(1,0,0,1,617.4330708661416,139.66666666666669) translate(83.9506172839506 162.11111111111111)"/><path d="M540 626c0-3.3 2.7-6 6-6h348c3.3 0 6 2.7 6 6v159c0 3.3-2.7 6-6 6H546c-3.3 0-6-2.7-6-6z" stroke="#5e5e5e" stroke-width="3" fill="#fff"/><path d="M540 662.67h360m-360 64.16h360" stroke="#5e5e5e" stroke-width="3" fill="none"/><use xlink:href="#w" transform="matrix(1,0,0,1,548,628) translate(133.75925925925927 17.944444444444443)"/><path d="M145.43 706c0-3.3 2.7-6 6-6h348c3.32 0 6 2.7 6 6v159c0 3.3-2.68 6-6 6h-348c-3.3 0-6-2.7-6-6z" stroke="#5e5e5e" stroke-width="3" fill="#fff"/><path d="M145.43 742.67h360m-360 64.16h360" stroke="#5e5e5e" stroke-width="3" fill="none"/><use xlink:href="#x" transform="matrix(1,0,0,1,153.43307086614163,708) translate(131.87654320987656 17.944444444444443)"/><path d="M1100 626c0-3.3 2.7-6 6-6h348c3.3 0 6 2.7 6 6v159c0 3.3-2.7 6-6 6h-348c-3.3 0-6-2.7-6-6z" stroke="#5e5e5e" stroke-width="3" fill="#fff"/><path d="M1100 662.67h360m-360 64.16h360" stroke="#5e5e5e" stroke-width="3" fill="none"/><use xlink:href="#y" transform="matrix(1,0,0,1,1108,628) translate(114.0679012345679 17.944444444444443)"/><path d="M602.93 241h-25.35c-3.32 0-6-2.7-6-6V46c0-3.3-2.7-6-6-6H143.72c-3.3 0-6 2.7-6 6v202.1c0 3.32 2.7 6 6 6h3.25" stroke="#5e5e5e" stroke-width="2" fill="none"/><path d="M603.93 242h-1.02v-2h1.03z" fill="#5e5e5e"/><path d="M176.3 254.1l-14.84 14.86-15.15-14.85 15.16-14.84z" stroke="#5e5e5e" stroke-width="2" fill="#5e5e5e"/><path d="M146.97 288.76h-95.4l-2.65.7-1.77 1.8-.72 2.63v405.47l.72 2.64 1.77 1.8 2.65.7H537.5v2H51.3l-3.4-.92-2.54-2.53-.93-3.42v-406l.93-3.42 2.53-2.52 3.4-.92h95.67z" fill="#5e5e5e"/><path d="M538.5 706.5h-1.03v-2h1.03zM176.3 287.76l-14.84 14.85-15.15-14.84 15.16-14.85z" fill="#5e5e5e"/><path d="M177.72 287.76L161.46 304l-16.58-16.24 16.58-16.26zm-30 0l13.73 13.44 13.44-13.44-13.45-13.44zM979.57 518l3.4.92 2.54 2.53.93 3.42v174.5l.72 2.64 1.77 1.8 2.65.7h46.72v2h-47l-3.4-.92-2.54-2.53-.93-3.42v-174.5l-.7-2.64-1.8-1.8-2.63-.7H388.47v-2zm117.93 186.5v2h-24.1v-2zM61.57 317.6l-2.65.7-1.77 1.8-.72 2.63v190.14l.72 2.64 1.77 1.8 2.65.7h291.8v2H61.3l-3.4-.92-2.54-2.53-.93-3.42V322.47l.93-3.42 2.53-2.53 3.4-.92h85.67v2z" fill="#5e5e5e"/><path d="M1098.5 706.5h-1.03v-2h1.03z" fill="#5e5e5e"/><path d="M176.3 316.6l-14.84 14.85-15.15-14.85 15.16-14.85z" fill="#fff"/><path d="M177.72 316.6l-16.26 16.26-16.58-16.26 16.58-16.26zm-30 0l13.73 13.44 13.44-13.44-13.45-13.44z" fill="#5e5e5e"/><use xlink:href="#z" transform="matrix(1,0,0,1,353.35609970076837,508.3333333333333) translate(0 14.222222222222223)"/><use xlink:href="#z" transform="matrix(1,0,0,1,1038.2945759252332,694.8333333333334) translate(0 14.222222222222223)"/><path d="M1466 486c0-3.3 2.7-6 6-6h348c3.32 0 6 2.7 6 6v123c0 3.3-2.68 6-6 6h-348c-3.3 0-6-2.7-6-6z" stroke="#5e5e5e" stroke-width="3" fill="#fff"/><path d="M1466 522.67h360m-360 46.26h360" stroke="#5e5e5e" stroke-width="3" fill="none"/><use xlink:href="#A" transform="matrix(1,0,0,1,1474.009901502286,488) translate(143.6358024691358 17.944444444444443)"/><path d="M1273.02 488l3.4.92 2.54 2.53.93 3.42v155.5l.7 2.64 1.78 1.8 2.64.7h354.86l2.64-.7 1.78-1.8.7-2.63V617.5h2v33.13l-.9 3.42-2.54 2.53-3.42.92h-355.4l-3.4-.92-2.53-2.53-.9-3.42v-155.5l-.73-2.64-1.77-1.8-2.65-.7H433.37v-2zM90.07 340.03l-2.65.72-1.77 1.77-.72 2.65v137.7l.72 2.64 1.77 1.8 2.65.7h308.2v2H89.8l-3.4-.92-2.54-2.53-.93-3.42V344.9l.93-3.4 2.53-2.54 3.4-.93h57.17v2z" fill="#5e5e5e"/><path d="M1647 617.53h-2v-1.03h2zM176.3 339.03l-14.84 14.85-15.15-14.85 15.16-14.85z" fill="#5e5e5e"/><path d="M177.72 339.03l-16.26 16.26-16.58-16.27 16.58-16.25zm-30 0l13.73 13.44 13.44-13.44-13.45-13.44z" fill="#5e5e5e"/><use xlink:href="#z" transform="matrix(1,0,0,1,398.2621046254318,478.3333333333333) translate(0 14.222222222222223)"/><path d="M325.43 697.5V585c0-3.3-2.68-6-6-6h-208c-3.3 0-6-2.7-6-6V377.08c0-3.32 2.7-6 6-6h35.54" stroke="#5e5e5e" stroke-width="2" fill="none"/><path d="M326.43 698.5h-2v-1.03h2z" fill="#5e5e5e"/><path d="M176.3 371.08l-14.84 14.85-15.15-14.85 15.16-14.85z" stroke="#5e5e5e" stroke-width="2" fill="#5e5e5e"/><path d="M720 617.5V465c0-3.3-2.7-6-6-6H569.93c-3.3 0-6-2.7-6-6V301.16c0-3.32 2.7-6 6-6h3.25" stroke="#5e5e5e" stroke-width="2" fill="none"/><path d="M721 618.5h-2v-1.03h2z" fill="#5e5e5e"/><path d="M602.52 295.16L587.67 310l-15.15-14.84 15.15-14.85z" stroke="#5e5e5e" stroke-width="2" fill="#5e5e5e"/><path d="M1065.43 81.5c0-3.3 2.7-6 6-6h348c3.32 0 6 2.7 6 6v319c0 3.3-2.68 6-6 6h-348c-3.3 0-6-2.7-6-6z" stroke="#5e5e5e" stroke-width="3" fill="#fff"/><path d="M1065.43 118.17h360m-360 224.16h360" stroke="#5e5e5e" stroke-width="3" fill="none"/><use xlink:href="#B" transform="matrix(1,0,0,1,1073.4330708661416,83.5) translate(132.55555555555554 17.944444444444443)"/><use xlink:href="#d" transform="matrix(1,0,0,1,1077.4330708661416,126.16666666666667) translate(0 28.94444444444445)"/><use xlink:href="#e" transform="matrix(1,0,0,1,1077.4330708661416,126.16666666666667) translate(29.5679012345679 28.94444444444445)"/><use xlink:href="#f" transform="matrix(1,0,0,1,1077.4330708661416,126.16666666666667) translate(0 55.61111111111112)"/><use xlink:href="#e" transform="matrix(1,0,0,1,1077.4330708661416,126.16666666666667) translate(67.8395061728395 55.61111111111112)"/><use xlink:href="#g" transform="matrix(1,0,0,1,1077.4330708661416,126.16666666666667) translate(0 82.27777777777777)"/><use xlink:href="#e" transform="matrix(1,0,0,1,1077.4330708661416,126.16666666666667) translate(66.60493827160494 82.27777777777777)"/><use xlink:href="#C" transform="matrix(1,0,0,1,1077.4330708661416,126.16666666666667) translate(0 108.94444444444446)"/><use xlink:href="#u" transform="matrix(1,0,0,1,1077.4330708661416,126.16666666666667) translate(71.48148148148147 108.94444444444446)"/><use xlink:href="#j" transform="matrix(1,0,0,1,1077.4330708661416,126.16666666666667) translate(0 135.61111111111111)"/><use xlink:href="#k" transform="matrix(1,0,0,1,1077.4330708661416,126.16666666666667) translate(83.9506172839506 135.61111111111111)"/><use xlink:href="#l" transform="matrix(1,0,0,1,1077.4330708661416,126.16666666666667) translate(0 162.27777777777777)"/><use xlink:href="#m" transform="matrix(1,0,0,1,1077.4330708661416,126.16666666666667) translate(124.5679012345679 162.27777777777777)"/><use xlink:href="#D" transform="matrix(1,0,0,1,1077.4330708661416,126.16666666666667) translate(0 188.94444444444446)"/><use xlink:href="#E" transform="matrix(1,0,0,1,1077.4330708661416,126.16666666666667) translate(82.6543209876543 188.94444444444446)"/><path d="M792.86 460h-66.73l-2.64.7-1.8 1.8-.7 2.63V617.5h-2V464.87l.92-3.42 2.53-2.53 3.42-.92h67zm203.57-6.87l-.92 3.42-2.52 2.53-3.4.92h-161.6v-2H989.3l2.64-.7 1.78-1.8.7-2.63V403h2zm36.75-191.3h-31.6l-2.66.7-1.77 1.8-.72 2.63v114.7h-2V266.7l.93-3.42 2.53-2.53 3.4-.92h31.88z" fill="#5e5e5e"/><path d="M721 618.5h-2v-1.03h2zM1062.52 260.83l-14.85 14.85-15.15-14.85 15.15-14.85z" fill="#5e5e5e"/><path d="M1063.93 260.83l-16.25 16.25-16.6-16.25 16.6-16.26zm-29.98 0l13.7 13.44 13.45-13.44-13.44-13.45z" fill="#5e5e5e"/><g><use xlink:href="#z" transform="matrix(1,0,0,1,792.8572649172173,448.3333333333333) translate(0 14.222222222222223)"/></g><path d="M1006.43 492.87l.72 2.64 1.77 1.8 2.65.7h262.56l3.42.92 2.53 2.53.92 3.42V617.5h-2V505.13l-.7-2.64-1.8-1.8-2.63-.7H1011.3l-3.4-.92-2.54-2.53-.93-3.42V403h2zm26.75-200.38h-21.6l-2.66.7-1.77 1.78-.72 2.64v84.04h-2v-84.3l.93-3.4 2.53-2.54 3.4-.93h21.88z" fill="#5e5e5e"/><path d="M1281 618.5h-2v-1.03h2z" fill="#5e5e5e"/><path d="M1062.52 291.5l-14.85 14.84-15.15-14.85 15.15-14.86z" fill="#fff"/><path d="M1063.93 291.5l-16.25 16.25-16.6-16.26 16.6-16.26zm-29.98 0l13.7 13.43 13.45-13.44-13.44-13.45z" fill="#5e5e5e"/><g><use xlink:href="#z" transform="matrix(1,0,0,1,987.8775153105861,381.6609345257332) translate(0 14.222222222222223)"/></g><path d="M840 846c0-3.3 2.7-6 6-6h348c3.3 0 6 2.7 6 6v159c0 3.3-2.7 6-6 6H846c-3.3 0-6-2.7-6-6z" stroke="#5e5e5e" stroke-width="3" fill="#fff"/><path d="M840 882.67h360m-360 64.16h360" stroke="#5e5e5e" stroke-width="3" fill="none"/><g><use xlink:href="#F" transform="matrix(1,0,0,1,848,848) translate(134.99382716049382 17.944444444444443)"/></g><path d="M1021 837.5h-2V403h2zm12.18-521.12h-7.05l-2.64.72-1.8 1.77-.7 2.65v60.14h-2v-60.4l.92-3.42 2.53-2.53 3.42-.92h7.3z" fill="#5e5e5e"/><path d="M1021 838.5h-2v-1.03h2z" fill="#5e5e5e"/><path d="M1062.52 315.38l-14.85 14.85-15.15-14.85 15.15-14.85z" fill="#fff"/><path d="M1063.93 315.38l-16.25 16.26-16.6-16.26 16.6-16.25zm-29.98 0l13.7 13.45 13.45-13.45-13.44-13.44z" fill="#5e5e5e"/><path d="M1500 81.5c0-3.3 2.7-6 6-6h348c3.3 0 6 2.7 6 6v319c0 3.3-2.7 6-6 6h-348c-3.3 0-6-2.7-6-6z" stroke="#5e5e5e" stroke-width="3" fill="#fff"/><path d="M1500 118.17h360m-360 224.16h360" stroke="#5e5e5e" stroke-width="3" fill="none"/><g><use xlink:href="#G" transform="matrix(1,0,0,1,1508,83.5) translate(149.37654320987656 17.944444444444443)"/></g><g><use xlink:href="#d" transform="matrix(1,0,0,1,1512,126.16666666666667) translate(0 28.94444444444445)"/><use xlink:href="#e" transform="matrix(1,0,0,1,1512,126.16666666666667) translate(29.5679012345679 28.94444444444445)"/><use xlink:href="#f" transform="matrix(1,0,0,1,1512,126.16666666666667) translate(0 55.61111111111112)"/><use xlink:href="#e" transform="matrix(1,0,0,1,1512,126.16666666666667) translate(67.8395061728395 55.61111111111112)"/><use xlink:href="#g" transform="matrix(1,0,0,1,1512,126.16666666666667) translate(0 82.27777777777777)"/><use xlink:href="#e" transform="matrix(1,0,0,1,1512,126.16666666666667) translate(66.60493827160494 82.27777777777777)"/><use xlink:href="#C" transform="matrix(1,0,0,1,1512,126.16666666666667) translate(0 108.94444444444446)"/><use xlink:href="#u" transform="matrix(1,0,0,1,1512,126.16666666666667) translate(71.48148148148147 108.94444444444446)"/><use xlink:href="#j" transform="matrix(1,0,0,1,1512,126.16666666666667) translate(0 135.61111111111111)"/><use xlink:href="#k" transform="matrix(1,0,0,1,1512,126.16666666666667) translate(83.9506172839506 135.61111111111111)"/><use xlink:href="#l" transform="matrix(1,0,0,1,1512,126.16666666666667) translate(0 162.27777777777777)"/><use xlink:href="#m" transform="matrix(1,0,0,1,1512,126.16666666666667) translate(124.5679012345679 162.27777777777777)"/><use xlink:href="#H" transform="matrix(1,0,0,1,1512,126.16666666666667) translate(0 188.94444444444446)"/><use xlink:href="#I" transform="matrix(1,0,0,1,1512,126.16666666666667) translate(46.79012345679013 188.94444444444446)"/></g><path d="M1467.75 269.44h-19.1l-2.65.72-1.78 1.77-.7 2.65v129.55l-.93 3.42-2.54 2.53-3.42.92h-710.5l-2.65.7-1.8 1.8-.7 2.63V617.5h-2V415.87l.92-3.42 2.53-2.53 3.42-.92h710.5l2.65-.7 1.78-1.8.7-2.63V274.3l.93-3.4 2.53-2.53 3.42-.93h19.37z" fill="#5e5e5e"/><path d="M721 618.5h-2v-1.03h2zM1497.1 268.44l-14.86 14.85-15.15-14.86 15.14-14.85z" fill="#5e5e5e"/><path d="M1498.5 268.44l-16.26 16.26-16.58-16.26 16.58-16.25zm-30 0l13.73 13.45 13.44-13.46-13.44-13.44z" fill="#5e5e5e"/><path d="M1280 617.5V446c0-3.3 2.7-6 6-6h164.5c3.3 0 6-2.7 6-6V289.05c0-3.3 2.7-6 6-6h5.25" stroke="#5e5e5e" stroke-width="2" fill="none"/><path d="M1281 618.5h-2v-1.03h2z" fill="#5e5e5e"/><path d="M1497.1 283.05l-14.86 14.85-15.15-14.85 15.14-14.85z" stroke="#5e5e5e" stroke-width="2" fill="#fff"/><defs><path fill="#333" d="M185-189c-5-48-123-54-124 2 14 75 158 14 163 119 3 78-121 87-175 55-17-10-28-26-33-46l33-7c5 56 141 63 141-1 0-78-155-14-162-118-5-82 145-84 179-34 5 7 8 16 11 25" id="J"/><path fill="#333" d="M59-47c-2 24 18 29 38 22v24C64 9 27 4 27-40v-127H5v-23h24l9-43h21v43h35v23H59v120" id="K"/><path fill="#333" d="M84 4C-5 8 30-112 23-190h32v120c0 31 7 50 39 49 72-2 45-101 50-169h31l1 190h-30c-1-10 1-25-2-33-11 22-28 36-60 37" id="L"/><path fill="#333" d="M85-194c31 0 48 13 60 33l-1-100h32l1 261h-30c-2-10 0-23-3-31C134-8 116 4 85 4 32 4 16-35 15-94c0-66 23-100 70-100zm9 24c-40 0-46 34-46 75 0 40 6 74 45 74 42 0 51-32 51-76 0-42-9-74-50-73" id="M"/><path fill="#333" d="M100-194c63 0 86 42 84 106H49c0 40 14 67 53 68 26 1 43-12 49-29l28 8c-11 28-37 45-77 45C44 4 14-33 15-96c1-61 26-98 85-98zm52 81c6-60-76-77-97-28-3 7-6 17-6 28h103" id="N"/><path fill="#333" d="M117-194c89-4 53 116 60 194h-32v-121c0-31-8-49-39-48C34-167 62-67 57 0H25l-1-190h30c1 10-1 24 2 32 11-22 29-35 61-36" id="O"/><g id="a"><use transform="matrix(0.06172839506172839,0,0,0.06172839506172839,0,0)" xlink:href="#J"/><use transform="matrix(0.06172839506172839,0,0,0.06172839506172839,14.814814814814813,0)" xlink:href="#K"/><use transform="matrix(0.06172839506172839,0,0,0.06172839506172839,20.98765432098765,0)" xlink:href="#L"/><use transform="matrix(0.06172839506172839,0,0,0.06172839506172839,33.33333333333333,0)" xlink:href="#M"/><use transform="matrix(0.06172839506172839,0,0,0.06172839506172839,45.679012345679006,0)" xlink:href="#N"/><use transform="matrix(0.06172839506172839,0,0,0.06172839506172839,58.02469135802468,0)" xlink:href="#O"/><use transform="matrix(0.06172839506172839,0,0,0.06172839506172839,70.37037037037037,0)" xlink:href="#K"/></g><path fill="#333" d="M16-82v-28h88v28H16" id="P"/><path fill="#333" d="M87 75C49 33 22-17 22-94c0-76 28-126 65-167h31c-38 41-64 92-64 168S80 34 118 75H87" id="Q"/><path fill="#333" d="M115-194c55 1 70 41 70 98S169 2 115 4C84 4 66-9 55-30l1 105H24l-1-265h31l2 30c10-21 28-34 59-34zm-8 174c40 0 45-34 45-75s-6-73-45-74c-42 0-51 32-51 76 0 43 10 73 51 73" id="R"/><path fill="#333" d="M114-163C36-179 61-72 57 0H25l-1-190h30c1 12-1 29 2 39 6-27 23-49 58-41v29" id="S"/><path fill="#333" d="M24-231v-30h32v30H24zM24 0v-190h32V0H24" id="T"/><path fill="#333" d="M108 0H70L1-190h34L89-25l56-165h34" id="U"/><path fill="#333" d="M141-36C126-15 110 5 73 4 37 3 15-17 15-53c-1-64 63-63 125-63 3-35-9-54-41-54-24 1-41 7-42 31l-33-3c5-37 33-52 76-52 45 0 72 20 72 64v82c-1 20 7 32 28 27v20c-31 9-61-2-59-35zM48-53c0 20 12 33 32 33 41-3 63-29 60-74-43 2-92-5-92 41" id="V"/><path fill="#333" d="M33-261c38 41 65 92 65 168S71 34 33 75H2C39 34 66-17 66-93S39-220 2-261h31" id="W"/><g id="b"><use transform="matrix(0.06172839506172839,0,0,0.06172839506172839,0,0)" xlink:href="#P"/><use transform="matrix(0.06172839506172839,0,0,0.06172839506172839,7.345679012345679,0)" xlink:href="#Q"/><use transform="matrix(0.06172839506172839,0,0,0.06172839506172839,14.691358024691358,0)" xlink:href="#R"/><use transform="matrix(0.06172839506172839,0,0,0.06172839506172839,27.037037037037038,0)" xlink:href="#S"/><use transform="matrix(0.06172839506172839,0,0,0.06172839506172839,34.382716049382715,0)" xlink:href="#T"/><use transform="matrix(0.06172839506172839,0,0,0.06172839506172839,39.25925925925926,0)" xlink:href="#U"/><use transform="matrix(0.06172839506172839,0,0,0.06172839506172839,50.37037037037037,0)" xlink:href="#V"/><use transform="matrix(0.06172839506172839,0,0,0.06172839506172839,62.716049382716044,0)" xlink:href="#K"/><use transform="matrix(0.06172839506172839,0,0,0.06172839506172839,68.88888888888889,0)" xlink:href="#N"/><use transform="matrix(0.06172839506172839,0,0,0.06172839506172839,81.23456790123457,0)" xlink:href="#W"/></g><path fill="#333" d="M118-107v75H92v-75H18v-26h74v-75h26v75h74v26h-74" id="X"/><path fill="#333" d="M115-194c53 0 69 39 70 98 0 66-23 100-70 100C84 3 66-7 56-30L54 0H23l1-261h32v101c10-23 28-34 59-34zm-8 174c40 0 45-34 45-75 0-40-5-75-45-74-42 0-51 32-51 76 0 43 10 73 51 73" id="Y"/><path fill="#333" d="M24 0v-261h32V0H24" id="Z"/><path fill="#333" d="M96-169c-40 0-48 33-48 73s9 75 48 75c24 0 41-14 43-38l32 2c-6 37-31 61-74 61-59 0-76-41-82-99-10-93 101-131 147-64 4 7 5 14 7 22l-32 3c-4-21-16-35-41-35" id="aa"/><g id="c"><use transform="matrix(0.06172839506172839,0,0,0.06172839506172839,0,0)" xlink:href="#X"/><use transform="matrix(0.06172839506172839,0,0,0.06172839506172839,12.962962962962962,0)" xlink:href="#Q"/><use transform="matrix(0.06172839506172839,0,0,0.06172839506172839,20.30864197530864,0)" xlink:href="#R"/><use transform="matrix(0.06172839506172839,0,0,0.06172839506172839,32.654320987654316,0)" xlink:href="#L"/><use transform="matrix(0.06172839506172839,0,0,0.06172839506172839,44.99999999999999,0)" xlink:href="#Y"/><use transform="matrix(0.06172839506172839,0,0,0.06172839506172839,57.34567901234567,0)" xlink:href="#Z"/><use transform="matrix(0.06172839506172839,0,0,0.06172839506172839,62.222222222222214,0)" xlink:href="#T"/><use transform="matrix(0.06172839506172839,0,0,0.06172839506172839,67.09876543209876,0)" xlink:href="#aa"/><use transform="matrix(0.06172839506172839,0,0,0.06172839506172839,78.20987654320987,0)" xlink:href="#W"/></g><path fill="#333" d="M33-154v-36h34v36H33zM33 0v-36h34V0H33" id="ab"/><g id="d"><use transform="matrix(0.06172839506172839,0,0,0.06172839506172839,0,0)" xlink:href="#T"/><use transform="matrix(0.06172839506172839,0,0,0.06172839506172839,4.876543209876543,0)" xlink:href="#M"/><use transform="matrix(0.06172839506172839,0,0,0.06172839506172839,17.22222222222222,0)" xlink:href="#ab"/></g><path fill="#333" d="M177-190C167-65 218 103 67 71c-23-6-38-20-44-43l32-5c15 47 100 32 89-28v-30C133-14 115 1 83 1 29 1 15-40 15-95c0-56 16-97 71-98 29-1 48 16 59 35 1-10 0-23 2-32h30zM94-22c36 0 50-32 50-73 0-42-14-75-50-75-39 0-46 34-46 75s6 73 46 73" id="ac"/><g id="e"><use transform="matrix(0.06172839506172839,0,0,0.06172839506172839,0,0)" xlink:href="#J"/><use transform="matrix(0.06172839506172839,0,0,0.06172839506172839,14.814814814814813,0)" xlink:href="#K"/><use transform="matrix(0.06172839506172839,0,0,0.06172839506172839,20.98765432098765,0)" xlink:href="#S"/><use transform="matrix(0.06172839506172839,0,0,0.06172839506172839,28.33333333333333,0)" xlink:href="#T"/><use transform="matrix(0.06172839506172839,0,0,0.06172839506172839,33.20987654320987,0)" xlink:href="#O"/><use transform="matrix(0.06172839506172839,0,0,0.06172839506172839,45.55555555555555,0)" xlink:href="#ac"/></g><path fill="#333" d="M210-169c-67 3-38 105-44 169h-31v-121c0-29-5-50-35-48C34-165 62-65 56 0H25l-1-190h30c1 10-1 24 2 32 10-44 99-50 107 0 11-21 27-35 58-36 85-2 47 119 55 194h-31v-121c0-29-5-49-35-48" id="ad"/><g id="f"><use transform="matrix(0.06172839506172839,0,0,0.06172839506172839,0,0)" xlink:href="#O"/><use transform="matrix(0.06172839506172839,0,0,0.06172839506172839,12.345679012345679,0)" xlink:href="#V"/><use transform="matrix(0.06172839506172839,0,0,0.06172839506172839,24.691358024691358,0)" xlink:href="#ad"/><use transform="matrix(0.06172839506172839,0,0,0.06172839506172839,43.148148148148145,0)" xlink:href="#N"/><use transform="matrix(0.06172839506172839,0,0,0.06172839506172839,55.49382716049382,0)" xlink:href="#ab"/></g><path fill="#333" d="M100-194c62-1 85 37 85 99 1 63-27 99-86 99S16-35 15-95c0-66 28-99 85-99zM99-20c44 1 53-31 53-75 0-43-8-75-51-75s-53 32-53 75 10 74 51 75" id="ae"/><g id="g"><use transform="matrix(0.06172839506172839,0,0,0.06172839506172839,0,0)" xlink:href="#Y"/><use transform="matrix(0.06172839506172839,0,0,0.06172839506172839,12.345679012345679,0)" xlink:href="#Z"/><use transform="matrix(0.06172839506172839,0,0,0.06172839506172839,17.22222222222222,0)" xlink:href="#ae"/><use transform="matrix(0.06172839506172839,0,0,0.06172839506172839,29.5679012345679,0)" xlink:href="#ae"/><use transform="matrix(0.06172839506172839,0,0,0.06172839506172839,41.913580246913575,0)" xlink:href="#M"/><use transform="matrix(0.06172839506172839,0,0,0.06172839506172839,54.25925925925925,0)" xlink:href="#ab"/></g><g id="h"><use transform="matrix(0.06172839506172839,0,0,0.06172839506172839,0,0)" xlink:href="#ac"/><use transform="matrix(0.06172839506172839,0,0,0.06172839506172839,12.345679012345679,0)" xlink:href="#L"/><use transform="matrix(0.06172839506172839,0,0,0.06172839506172839,24.691358024691358,0)" xlink:href="#V"/><use transform="matrix(0.06172839506172839,0,0,0.06172839506172839,37.03703703703704,0)" xlink:href="#S"/><use transform="matrix(0.06172839506172839,0,0,0.06172839506172839,44.382716049382715,0)" xlink:href="#M"/><use transform="matrix(0.06172839506172839,0,0,0.06172839506172839,56.72839506172839,0)" xlink:href="#T"/><use transform="matrix(0.06172839506172839,0,0,0.06172839506172839,61.60493827160494,0)" xlink:href="#V"/><use transform="matrix(0.06172839506172839,0,0,0.06172839506172839,73.95061728395062,0)" xlink:href="#O"/><use transform="matrix(0.06172839506172839,0,0,0.06172839506172839,86.2962962962963,0)" xlink:href="#ab"/></g><path fill="#333" d="M143 4C61 4 22-44 18-125c-5-107 100-154 193-111 17 8 29 25 37 43l-32 9c-13-25-37-40-76-40-61 0-88 39-88 99 0 61 29 100 91 101 35 0 62-11 79-27v-45h-74v-28h105v86C228-13 192 4 143 4" id="af"/><g id="i"><use transform="matrix(0.06172839506172839,0,0,0.06172839506172839,0,0)" xlink:href="#af"/><use transform="matrix(0.06172839506172839,0,0,0.06172839506172839,17.28395061728395,0)" xlink:href="#L"/><use transform="matrix(0.06172839506172839,0,0,0.06172839506172839,29.629629629629626,0)" xlink:href="#V"/><use transform="matrix(0.06172839506172839,0,0,0.06172839506172839,41.9753086419753,0)" xlink:href="#S"/><use transform="matrix(0.06172839506172839,0,0,0.06172839506172839,49.32098765432098,0)" xlink:href="#M"/><use transform="matrix(0.06172839506172839,0,0,0.06172839506172839,61.66666666666666,0)" xlink:href="#T"/><use transform="matrix(0.06172839506172839,0,0,0.06172839506172839,66.5432098765432,0)" xlink:href="#V"/><use transform="matrix(0.06172839506172839,0,0,0.06172839506172839,78.88888888888889,0)" xlink:href="#O"/></g><g id="j"><use transform="matrix(0.06172839506172839,0,0,0.06172839506172839,0,0)" xlink:href="#aa"/><use transform="matrix(0.06172839506172839,0,0,0.06172839506172839,11.11111111111111,0)" xlink:href="#ae"/><use transform="matrix(0.06172839506172839,0,0,0.06172839506172839,23.45679012345679,0)" xlink:href="#O"/><use transform="matrix(0.06172839506172839,0,0,0.06172839506172839,35.80246913580247,0)" xlink:href="#K"/><use transform="matrix(0.06172839506172839,0,0,0.06172839506172839,41.97530864197531,0)" xlink:href="#V"/><use transform="matrix(0.06172839506172839,0,0,0.06172839506172839,54.32098765432099,0)" xlink:href="#aa"/><use transform="matrix(0.06172839506172839,0,0,0.06172839506172839,65.4320987654321,0)" xlink:href="#K"/><use transform="matrix(0.06172839506172839,0,0,0.06172839506172839,71.60493827160494,0)" xlink:href="#ab"/></g><path fill="#333" d="M212-179c-10-28-35-45-73-45-59 0-87 40-87 99 0 60 29 101 89 101 43 0 62-24 78-52l27 14C228-24 195 4 139 4 59 4 22-46 18-125c-6-104 99-153 187-111 19 9 31 26 39 46" id="ag"/><g id="k"><use transform="matrix(0.06172839506172839,0,0,0.06172839506172839,0,0)" xlink:href="#ag"/><use transform="matrix(0.06172839506172839,0,0,0.06172839506172839,15.987654320987653,0)" xlink:href="#ae"/><use transform="matrix(0.06172839506172839,0,0,0.06172839506172839,28.333333333333332,0)" xlink:href="#O"/><use transform="matrix(0.06172839506172839,0,0,0.06172839506172839,40.67901234567901,0)" xlink:href="#K"/><use transform="matrix(0.06172839506172839,0,0,0.06172839506172839,46.851851851851855,0)" xlink:href="#V"/><use transform="matrix(0.06172839506172839,0,0,0.06172839506172839,59.19753086419753,0)" xlink:href="#aa"/><use transform="matrix(0.06172839506172839,0,0,0.06172839506172839,70.30864197530865,0)" xlink:href="#K"/></g><g id="l"><use transform="matrix(0.06172839506172839,0,0,0.06172839506172839,0,0)" xlink:href="#M"/><use transform="matrix(0.06172839506172839,0,0,0.06172839506172839,12.345679012345679,0)" xlink:href="#N"/><use transform="matrix(0.06172839506172839,0,0,0.06172839506172839,24.691358024691358,0)" xlink:href="#R"/><use transform="matrix(0.06172839506172839,0,0,0.06172839506172839,37.03703703703704,0)" xlink:href="#V"/><use transform="matrix(0.06172839506172839,0,0,0.06172839506172839,49.382716049382715,0)" xlink:href="#S"/><use transform="matrix(0.06172839506172839,0,0,0.06172839506172839,56.72839506172839,0)" xlink:href="#K"/><use transform="matrix(0.06172839506172839,0,0,0.06172839506172839,62.901234567901234,0)" xlink:href="#ad"/><use transform="matrix(0.06172839506172839,0,0,0.06172839506172839,81.35802469135803,0)" xlink:href="#N"/><use transform="matrix(0.06172839506172839,0,0,0.06172839506172839,93.70370370370371,0)" xlink:href="#O"/><use transform="matrix(0.06172839506172839,0,0,0.06172839506172839,106.0493827160494,0)" xlink:href="#K"/><use transform="matrix(0.06172839506172839,0,0,0.06172839506172839,112.22222222222223,0)" xlink:href="#ab"/></g><path fill="#333" d="M30-248c118-7 216 8 213 122C240-48 200 0 122 0H30v-248zM63-27c89 8 146-16 146-99s-60-101-146-95v194" id="ah"/><g id="m"><use transform="matrix(0.06172839506172839,0,0,0.06172839506172839,0,0)" xlink:href="#ah"/><use transform="matrix(0.06172839506172839,0,0,0.06172839506172839,15.987654320987653,0)" xlink:href="#N"/><use transform="matrix(0.06172839506172839,0,0,0.06172839506172839,28.333333333333332,0)" xlink:href="#R"/><use transform="matrix(0.06172839506172839,0,0,0.06172839506172839,40.67901234567901,0)" xlink:href="#V"/><use transform="matrix(0.06172839506172839,0,0,0.06172839506172839,53.02469135802469,0)" xlink:href="#S"/><use transform="matrix(0.06172839506172839,0,0,0.06172839506172839,60.37037037037037,0)" xlink:href="#K"/><use transform="matrix(0.06172839506172839,0,0,0.06172839506172839,66.5432098765432,0)" xlink:href="#ad"/><use transform="matrix(0.06172839506172839,0,0,0.06172839506172839,84.99999999999999,0)" xlink:href="#N"/><use transform="matrix(0.06172839506172839,0,0,0.06172839506172839,97.34567901234567,0)" xlink:href="#O"/><use transform="matrix(0.06172839506172839,0,0,0.06172839506172839,109.69135802469135,0)" xlink:href="#K"/></g><path fill="#333" d="M141 0L90-78 38 0H4l68-98-65-92h35l48 74 47-74h35l-64 92 68 98h-35" id="ai"/><path fill="#333" d="M135-143c-3-34-86-38-87 0 15 53 115 12 119 90S17 21 10-45l28-5c4 36 97 45 98 0-10-56-113-15-118-90-4-57 82-63 122-42 12 7 21 19 24 35" id="aj"/><g id="n"><use transform="matrix(0.06172839506172839,0,0,0.06172839506172839,0,0)" xlink:href="#N"/><use transform="matrix(0.06172839506172839,0,0,0.06172839506172839,12.345679012345679,0)" xlink:href="#ai"/><use transform="matrix(0.06172839506172839,0,0,0.06172839506172839,23.45679012345679,0)" xlink:href="#V"/><use transform="matrix(0.06172839506172839,0,0,0.06172839506172839,35.80246913580247,0)" xlink:href="#ad"/><use transform="matrix(0.06172839506172839,0,0,0.06172839506172839,54.25925925925925,0)" xlink:href="#aj"/><use transform="matrix(0.06172839506172839,0,0,0.06172839506172839,65.37037037037037,0)" xlink:href="#ab"/></g><path fill="#333" d="M26 75v-336h71v23H56V52h41v23H26" id="ak"/><path fill="#333" d="M3 75V52h41v-290H3v-23h71V75H3" id="al"/><g id="o"><use transform="matrix(0.06172839506172839,0,0,0.06172839506172839,0,0)" xlink:href="#ak"/><use transform="matrix(0.06172839506172839,0,0,0.06172839506172839,6.172839506172839,0)" xlink:href="#al"/></g><g id="p"><use transform="matrix(0.06172839506172839,0,0,0.06172839506172839,0,0)" xlink:href="#V"/><use transform="matrix(0.06172839506172839,0,0,0.06172839506172839,12.345679012345679,0)" xlink:href="#aa"/><use transform="matrix(0.06172839506172839,0,0,0.06172839506172839,23.45679012345679,0)" xlink:href="#aa"/><use transform="matrix(0.06172839506172839,0,0,0.06172839506172839,34.5679012345679,0)" xlink:href="#ae"/><use transform="matrix(0.06172839506172839,0,0,0.06172839506172839,46.913580246913575,0)" xlink:href="#L"/><use transform="matrix(0.06172839506172839,0,0,0.06172839506172839,59.25925925925925,0)" xlink:href="#O"/><use transform="matrix(0.06172839506172839,0,0,0.06172839506172839,71.60493827160494,0)" xlink:href="#K"/><use transform="matrix(0.06172839506172839,0,0,0.06172839506172839,77.77777777777777,0)" xlink:href="#ab"/></g><path fill="#333" d="M205 0l-28-72H64L36 0H1l101-248h38L239 0h-34zm-38-99l-47-123c-12 45-31 82-46 123h93" id="am"/><g id="q"><use transform="matrix(0.06172839506172839,0,0,0.06172839506172839,0,0)" xlink:href="#am"/><use transform="matrix(0.06172839506172839,0,0,0.06172839506172839,14.814814814814813,0)" xlink:href="#aa"/><use transform="matrix(0.06172839506172839,0,0,0.06172839506172839,25.925925925925924,0)" xlink:href="#aa"/><use transform="matrix(0.06172839506172839,0,0,0.06172839506172839,37.03703703703704,0)" xlink:href="#ae"/><use transform="matrix(0.06172839506172839,0,0,0.06172839506172839,49.382716049382715,0)" xlink:href="#L"/><use transform="matrix(0.06172839506172839,0,0,0.06172839506172839,61.72839506172839,0)" xlink:href="#O"/><use transform="matrix(0.06172839506172839,0,0,0.06172839506172839,74.07407407407408,0)" xlink:href="#K"/></g><g id="r"><use transform="matrix(0.06172839506172839,0,0,0.06172839506172839,0,0)" xlink:href="#af"/><use transform="matrix(0.06172839506172839,0,0,0.06172839506172839,17.28395061728395,0)" xlink:href="#L"/><use transform="matrix(0.06172839506172839,0,0,0.06172839506172839,29.629629629629626,0)" xlink:href="#V"/><use transform="matrix(0.06172839506172839,0,0,0.06172839506172839,41.9753086419753,0)" xlink:href="#S"/><use transform="matrix(0.06172839506172839,0,0,0.06172839506172839,49.32098765432098,0)" xlink:href="#M"/><use transform="matrix(0.06172839506172839,0,0,0.06172839506172839,61.66666666666666,0)" xlink:href="#T"/><use transform="matrix(0.06172839506172839,0,0,0.06172839506172839,66.5432098765432,0)" xlink:href="#V"/><use transform="matrix(0.06172839506172839,0,0,0.06172839506172839,78.88888888888889,0)" xlink:href="#O"/></g><path fill="#333" d="M101-234c-31-9-42 10-38 44h38v23H63V0H32v-167H5v-23h27c-7-52 17-82 69-68v24" id="an"/><g id="s"><use transform="matrix(0.06172839506172839,0,0,0.06172839506172839,0,0)" xlink:href="#R"/><use transform="matrix(0.06172839506172839,0,0,0.06172839506172839,12.345679012345679,0)" xlink:href="#S"/><use transform="matrix(0.06172839506172839,0,0,0.06172839506172839,19.691358024691358,0)" xlink:href="#ae"/><use transform="matrix(0.06172839506172839,0,0,0.06172839506172839,32.03703703703704,0)" xlink:href="#an"/><use transform="matrix(0.06172839506172839,0,0,0.06172839506172839,38.20987654320988,0)" xlink:href="#N"/><use transform="matrix(0.06172839506172839,0,0,0.06172839506172839,50.55555555555556,0)" xlink:href="#aj"/><use transform="matrix(0.06172839506172839,0,0,0.06172839506172839,61.66666666666667,0)" xlink:href="#aj"/><use transform="matrix(0.06172839506172839,0,0,0.06172839506172839,72.77777777777779,0)" xlink:href="#T"/><use transform="matrix(0.06172839506172839,0,0,0.06172839506172839,77.65432098765433,0)" xlink:href="#ae"/><use transform="matrix(0.06172839506172839,0,0,0.06172839506172839,90.00000000000001,0)" xlink:href="#O"/><use transform="matrix(0.06172839506172839,0,0,0.06172839506172839,102.3456790123457,0)" xlink:href="#ab"/></g><g id="t"><use transform="matrix(0.06172839506172839,0,0,0.06172839506172839,0,0)" xlink:href="#T"/><use transform="matrix(0.06172839506172839,0,0,0.06172839506172839,4.876543209876543,0)" xlink:href="#O"/><use transform="matrix(0.06172839506172839,0,0,0.06172839506172839,17.22222222222222,0)" xlink:href="#aa"/><use transform="matrix(0.06172839506172839,0,0,0.06172839506172839,28.333333333333332,0)" xlink:href="#ae"/><use transform="matrix(0.06172839506172839,0,0,0.06172839506172839,40.67901234567901,0)" xlink:href="#ad"/><use transform="matrix(0.06172839506172839,0,0,0.06172839506172839,59.1358024691358,0)" xlink:href="#N"/><use transform="matrix(0.06172839506172839,0,0,0.06172839506172839,71.48148148148148,0)" xlink:href="#ab"/></g><g id="u"><use transform="matrix(0.06172839506172839,0,0,0.06172839506172839,0,0)" xlink:href="#ah"/><use transform="matrix(0.06172839506172839,0,0,0.06172839506172839,15.987654320987653,0)" xlink:href="#ae"/><use transform="matrix(0.06172839506172839,0,0,0.06172839506172839,28.333333333333332,0)" xlink:href="#L"/><use transform="matrix(0.06172839506172839,0,0,0.06172839506172839,40.67901234567901,0)" xlink:href="#Y"/><use transform="matrix(0.06172839506172839,0,0,0.06172839506172839,53.02469135802469,0)" xlink:href="#Z"/><use transform="matrix(0.06172839506172839,0,0,0.06172839506172839,57.901234567901234,0)" xlink:href="#N"/></g><g id="v"><use transform="matrix(0.06172839506172839,0,0,0.06172839506172839,0,0)" xlink:href="#ag"/><use transform="matrix(0.06172839506172839,0,0,0.06172839506172839,15.987654320987653,0)" xlink:href="#ae"/><use transform="matrix(0.06172839506172839,0,0,0.06172839506172839,28.333333333333332,0)" xlink:href="#O"/><use transform="matrix(0.06172839506172839,0,0,0.06172839506172839,40.67901234567901,0)" xlink:href="#K"/><use transform="matrix(0.06172839506172839,0,0,0.06172839506172839,46.851851851851855,0)" xlink:href="#V"/><use transform="matrix(0.06172839506172839,0,0,0.06172839506172839,59.19753086419753,0)" xlink:href="#aa"/><use transform="matrix(0.06172839506172839,0,0,0.06172839506172839,70.30864197530865,0)" xlink:href="#K"/></g><g id="w"><use transform="matrix(0.06172839506172839,0,0,0.06172839506172839,0,0)" xlink:href="#ag"/><use transform="matrix(0.06172839506172839,0,0,0.06172839506172839,15.987654320987653,0)" xlink:href="#ae"/><use transform="matrix(0.06172839506172839,0,0,0.06172839506172839,28.333333333333332,0)" xlink:href="#O"/><use transform="matrix(0.06172839506172839,0,0,0.06172839506172839,40.67901234567901,0)" xlink:href="#K"/><use transform="matrix(0.06172839506172839,0,0,0.06172839506172839,46.851851851851855,0)" xlink:href="#V"/><use transform="matrix(0.06172839506172839,0,0,0.06172839506172839,59.19753086419753,0)" xlink:href="#aa"/><use transform="matrix(0.06172839506172839,0,0,0.06172839506172839,70.30864197530865,0)" xlink:href="#K"/></g><g id="x"><use transform="matrix(0.06172839506172839,0,0,0.06172839506172839,0,0)" xlink:href="#am"/><use transform="matrix(0.06172839506172839,0,0,0.06172839506172839,14.814814814814813,0)" xlink:href="#aa"/><use transform="matrix(0.06172839506172839,0,0,0.06172839506172839,25.925925925925924,0)" xlink:href="#aa"/><use transform="matrix(0.06172839506172839,0,0,0.06172839506172839,37.03703703703704,0)" xlink:href="#ae"/><use transform="matrix(0.06172839506172839,0,0,0.06172839506172839,49.382716049382715,0)" xlink:href="#L"/><use transform="matrix(0.06172839506172839,0,0,0.06172839506172839,61.72839506172839,0)" xlink:href="#O"/><use transform="matrix(0.06172839506172839,0,0,0.06172839506172839,74.07407407407408,0)" xlink:href="#K"/></g><g id="y"><use transform="matrix(0.06172839506172839,0,0,0.06172839506172839,0,0)" xlink:href="#ah"/><use transform="matrix(0.06172839506172839,0,0,0.06172839506172839,15.987654320987653,0)" xlink:href="#N"/><use transform="matrix(0.06172839506172839,0,0,0.06172839506172839,28.333333333333332,0)" xlink:href="#R"/><use transform="matrix(0.06172839506172839,0,0,0.06172839506172839,40.67901234567901,0)" xlink:href="#V"/><use transform="matrix(0.06172839506172839,0,0,0.06172839506172839,53.02469135802469,0)" xlink:href="#S"/><use transform="matrix(0.06172839506172839,0,0,0.06172839506172839,60.37037037037037,0)" xlink:href="#K"/><use transform="matrix(0.06172839506172839,0,0,0.06172839506172839,66.5432098765432,0)" xlink:href="#ad"/><use transform="matrix(0.06172839506172839,0,0,0.06172839506172839,84.99999999999999,0)" xlink:href="#N"/><use transform="matrix(0.06172839506172839,0,0,0.06172839506172839,97.34567901234567,0)" xlink:href="#O"/><use transform="matrix(0.06172839506172839,0,0,0.06172839506172839,109.69135802469135,0)" xlink:href="#K"/></g><path fill="#333" d="M136-208V0H84v-208H4v-40h212v40h-80" id="ao"/><path fill="#333" d="M185-48c-13 30-37 53-82 52C43 2 14-33 14-96s30-98 90-98c62 0 83 45 84 108H66c0 31 8 55 39 56 18 0 30-7 34-22zm-45-69c5-46-57-63-70-21-2 6-4 13-4 21h74" id="ap"/><path fill="#333" d="M144 0l-44-69L55 0H2l70-98-66-92h53l41 62 40-62h54l-67 91 71 99h-54" id="aq"/><path fill="#333" d="M115-3C79 11 28 4 28-45v-112H4v-33h27l15-45h31v45h36v33H77v99c-1 23 16 31 38 25v30" id="ar"/><g id="z"><use transform="matrix(0.04938271604938272,0,0,0.04938271604938272,0,0)" xlink:href="#ao"/><use transform="matrix(0.04938271604938272,0,0,0.04938271604938272,9.481481481481481,0)" xlink:href="#ap"/><use transform="matrix(0.04938271604938272,0,0,0.04938271604938272,19.358024691358025,0)" xlink:href="#aq"/><use transform="matrix(0.04938271604938272,0,0,0.04938271604938272,29.23456790123457,0)" xlink:href="#ar"/></g><path fill="#333" d="M30 0v-248h187v28H63v79h144v27H63v87h162V0H30" id="as"/><g id="A"><use transform="matrix(0.06172839506172839,0,0,0.06172839506172839,0,0)" xlink:href="#as"/><use transform="matrix(0.06172839506172839,0,0,0.06172839506172839,14.814814814814813,0)" xlink:href="#ai"/><use transform="matrix(0.06172839506172839,0,0,0.06172839506172839,25.925925925925924,0)" xlink:href="#V"/><use transform="matrix(0.06172839506172839,0,0,0.06172839506172839,38.2716049382716,0)" xlink:href="#ad"/></g><path fill="#333" d="M127-220V0H93v-220H8v-28h204v28h-85" id="at"/><path fill="#333" d="M106-169C34-169 62-67 57 0H25v-261h32l-1 103c12-21 28-36 61-36 89 0 53 116 60 194h-32v-121c2-32-8-49-39-48" id="au"/><g id="B"><use transform="matrix(0.06172839506172839,0,0,0.06172839506172839,0,0)" xlink:href="#at"/><use transform="matrix(0.06172839506172839,0,0,0.06172839506172839,11.049382716049381,0)" xlink:href="#N"/><use transform="matrix(0.06172839506172839,0,0,0.06172839506172839,23.39506172839506,0)" xlink:href="#V"/><use transform="matrix(0.06172839506172839,0,0,0.06172839506172839,35.74074074074074,0)" xlink:href="#aa"/><use transform="matrix(0.06172839506172839,0,0,0.06172839506172839,46.85185185185185,0)" xlink:href="#au"/><use transform="matrix(0.06172839506172839,0,0,0.06172839506172839,59.197530864197525,0)" xlink:href="#N"/><use transform="matrix(0.06172839506172839,0,0,0.06172839506172839,71.5432098765432,0)" xlink:href="#S"/></g><path fill="#333" d="M179-190L93 31C79 59 56 82 12 73V49c39 6 53-20 64-50L1-190h34L92-34l54-156h33" id="av"/><g id="C"><use transform="matrix(0.06172839506172839,0,0,0.06172839506172839,0,0)" xlink:href="#aj"/><use transform="matrix(0.06172839506172839,0,0,0.06172839506172839,11.11111111111111,0)" xlink:href="#V"/><use transform="matrix(0.06172839506172839,0,0,0.06172839506172839,23.45679012345679,0)" xlink:href="#Z"/><use transform="matrix(0.06172839506172839,0,0,0.06172839506172839,28.333333333333336,0)" xlink:href="#V"/><use transform="matrix(0.06172839506172839,0,0,0.06172839506172839,40.67901234567901,0)" xlink:href="#S"/><use transform="matrix(0.06172839506172839,0,0,0.06172839506172839,48.02469135802469,0)" xlink:href="#av"/><use transform="matrix(0.06172839506172839,0,0,0.06172839506172839,59.1358024691358,0)" xlink:href="#ab"/></g><path fill="#333" d="M24-231v-30h32v30H24zM-9 49c24 4 33-6 33-30v-209h32V24c2 40-23 58-65 49V49" id="aw"/><g id="D"><use transform="matrix(0.06172839506172839,0,0,0.06172839506172839,0,0)" xlink:href="#aj"/><use transform="matrix(0.06172839506172839,0,0,0.06172839506172839,11.11111111111111,0)" xlink:href="#L"/><use transform="matrix(0.06172839506172839,0,0,0.06172839506172839,23.45679012345679,0)" xlink:href="#Y"/><use transform="matrix(0.06172839506172839,0,0,0.06172839506172839,35.80246913580247,0)" xlink:href="#aw"/><use transform="matrix(0.06172839506172839,0,0,0.06172839506172839,40.67901234567901,0)" xlink:href="#N"/><use transform="matrix(0.06172839506172839,0,0,0.06172839506172839,53.02469135802469,0)" xlink:href="#aa"/><use transform="matrix(0.06172839506172839,0,0,0.06172839506172839,64.1358024691358,0)" xlink:href="#K"/><use transform="matrix(0.06172839506172839,0,0,0.06172839506172839,70.30864197530863,0)" xlink:href="#ab"/></g><g id="E"><use transform="matrix(0.06172839506172839,0,0,0.06172839506172839,0,0)" xlink:href="#J"/><use transform="matrix(0.06172839506172839,0,0,0.06172839506172839,14.814814814814813,0)" xlink:href="#L"/><use transform="matrix(0.06172839506172839,0,0,0.06172839506172839,27.160493827160494,0)" xlink:href="#Y"/><use transform="matrix(0.06172839506172839,0,0,0.06172839506172839,39.50617283950617,0)" xlink:href="#aw"/><use transform="matrix(0.06172839506172839,0,0,0.06172839506172839,44.382716049382715,0)" xlink:href="#N"/><use transform="matrix(0.06172839506172839,0,0,0.06172839506172839,56.72839506172839,0)" xlink:href="#aa"/><use transform="matrix(0.06172839506172839,0,0,0.06172839506172839,67.8395061728395,0)" xlink:href="#K"/></g><g id="F"><use transform="matrix(0.06172839506172839,0,0,0.06172839506172839,0,0)" xlink:href="#J"/><use transform="matrix(0.06172839506172839,0,0,0.06172839506172839,14.814814814814813,0)" xlink:href="#L"/><use transform="matrix(0.06172839506172839,0,0,0.06172839506172839,27.160493827160494,0)" xlink:href="#Y"/><use transform="matrix(0.06172839506172839,0,0,0.06172839506172839,39.50617283950617,0)" xlink:href="#aw"/><use transform="matrix(0.06172839506172839,0,0,0.06172839506172839,44.382716049382715,0)" xlink:href="#N"/><use transform="matrix(0.06172839506172839,0,0,0.06172839506172839,56.72839506172839,0)" xlink:href="#aa"/><use transform="matrix(0.06172839506172839,0,0,0.06172839506172839,67.8395061728395,0)" xlink:href="#K"/></g><g id="G"><use transform="matrix(0.06172839506172839,0,0,0.06172839506172839,0,0)" xlink:href="#J"/><use transform="matrix(0.06172839506172839,0,0,0.06172839506172839,14.814814814814813,0)" xlink:href="#K"/><use transform="matrix(0.06172839506172839,0,0,0.06172839506172839,20.98765432098765,0)" xlink:href="#V"/><use transform="matrix(0.06172839506172839,0,0,0.06172839506172839,33.33333333333333,0)" xlink:href="#an"/><use transform="matrix(0.06172839506172839,0,0,0.06172839506172839,39.07407407407407,0)" xlink:href="#an"/></g><g id="H"><use transform="matrix(0.06172839506172839,0,0,0.06172839506172839,0,0)" xlink:href="#K"/><use transform="matrix(0.06172839506172839,0,0,0.06172839506172839,6.172839506172839,0)" xlink:href="#T"/><use transform="matrix(0.06172839506172839,0,0,0.06172839506172839,11.049382716049383,0)" xlink:href="#K"/><use transform="matrix(0.06172839506172839,0,0,0.06172839506172839,17.22222222222222,0)" xlink:href="#Z"/><use transform="matrix(0.06172839506172839,0,0,0.06172839506172839,22.098765432098766,0)" xlink:href="#N"/><use transform="matrix(0.06172839506172839,0,0,0.06172839506172839,34.44444444444444,0)" xlink:href="#ab"/></g><g id="I"><use transform="matrix(0.06172839506172839,0,0,0.06172839506172839,0,0)" xlink:href="#at"/><use transform="matrix(0.06172839506172839,0,0,0.06172839506172839,12.716049382716047,0)" xlink:href="#T"/><use transform="matrix(0.06172839506172839,0,0,0.06172839506172839,17.592592592592588,0)" xlink:href="#K"/><use transform="matrix(0.06172839506172839,0,0,0.06172839506172839,23.765432098765427,0)" xlink:href="#Z"/><use transform="matrix(0.06172839506172839,0,0,0.06172839506172839,28.641975308641968,0)" xlink:href="#N"/></g></defs></g></svg>